<svg xmlns="http://www.w3.org/2000/svg" xmlns:xlink="http://www.w3.org/1999/xlink" viewBox="0 0 338.16 34.18">
  <defs>
    <style>
      .cls-1 {
        fill: #ee3524;
      }

      .cls-2 {
        fill: url(#linear-gradient);
      }
    </style>
    <linearGradient id="linear-gradient" x1="712.24" y1="282.91" x2="750.35" y2="282.91" gradientUnits="userSpaceOnUse">
      <stop offset="0" stop-color="#fff"/>
      <stop offset="0.4"/>
    </linearGradient>
  </defs>
  <g id="Layer_1" data-name="Layer 1">
    <path class="cls-1" d="M436.53,279.13c0,1.32-.81,2.29-2.42,2.91l1,1.61a4.92,4.92,0,0,1,.34,2v.62a6.65,6.65,0,0,1-2.48,4.95,9.36,9.36,0,0,1-3.83,2.05l-16.91,0,4.12-14.08Zm.18-2H414.49l4.45-5.3h13.78q4,0,4,4.37A7.75,7.75,0,0,1,436.71,277.09Zm-9.94,9.35c0-.62-.21-1-.65-1.06H421.3l-.59,2.17h4.8a1.34,1.34,0,0,0,.85-.34A1,1,0,0,0,426.77,286.44Z" transform="translate(-412.19 -265.82)"/>
  </g>
  <g id="Layer_2" data-name="Layer 2">
    <path class="cls-1" d="M455.5,288l-4.33,5.27H436.12l4-14.15h7.52L445.16,288Zm-5.82-16.09-1.55,5.17h-7.49l1.43-5.11Z" transform="translate(-412.19 -265.82)"/>
  </g>
  <g id="Layer_3" data-name="Layer 3">
    <path class="cls-1" d="M479.74,293.25H472l-2.11-8.45h-4.39l-6.22,8.45h-9.07l11.08-14.18h15.45Zm-3.47-16.16H462.9l4.46-5.2h7.8Z" transform="translate(-412.19 -265.82)"/>
  </g>
  <g id="Layer_4" data-name="Layer 4">
    <path class="cls-1" d="M503.45,279.1c0,3.62-.7,6.47-2.1,8.52a15.32,15.32,0,0,1-3.1,3.56,11.47,11.47,0,0,1-7,2.07H478.93L483,279.1h7.61L488,287.71a4.23,4.23,0,0,0,1.58.3,6.42,6.42,0,0,0,3.22-.95,7.18,7.18,0,0,0,3.53-4.35,14.13,14.13,0,0,0,.5-3.61Zm-.37-2H481.63l3.31-5.2h12.47a5.57,5.57,0,0,1,3.81,1.59A5.09,5.09,0,0,1,503.08,277.09Z" transform="translate(-412.19 -265.82)"/>
  </g>
  <g id="Layer_5" data-name="Layer 5">
    <path class="cls-1" d="M524.47,279.1,523,284.73H512.92l-.8,2.94h10l-1.49,5.58H502.43l3.78-14.15Zm2-7.21-1.36,5.2H504.94l3.34-5.2Z" transform="translate(-412.19 -265.82)"/>
  </g>
  <g id="Layer_6" data-name="Layer 6">
    <path class="cls-1" d="M572.14,279.1a5.85,5.85,0,0,1-2.17,3.57,4.57,4.57,0,0,1-1.45,1,4.34,4.34,0,0,1,.71,2.36,12.62,12.62,0,0,1-.22,2,54.89,54.89,0,0,1-1.61,5.25h-6.93L563,284.7h-7.31L553,293.25H545.8l4.14-14.15Zm.37-2.07h-24l3.28-5.14h17.62a2.57,2.57,0,0,1,1.44.49,3.3,3.3,0,0,1,1.09,1.18A7.65,7.65,0,0,1,572.51,277Z" transform="translate(-412.19 -265.82)"/>
  </g>
  <g id="Layer_7" data-name="Layer 7">
    <path class="cls-1" d="M594.18,279.1l-3.9,14.11-11.33,0c-3.55,0-5.75-1.07-6.59-3.19a4.68,4.68,0,0,1-.34-1.74,3.36,3.36,0,0,1,.12-.92l2.29-8.3h6.87l-2.19,7.68a2.88,2.88,0,0,0-.16.77.79.79,0,0,0,.62.81h4.95l2.6-9.26ZM583.25,272l-1.42,5.11h-7l1.45-5.08Zm12.88,0-1.45,5.11h-7.06L589,272Z" transform="translate(-412.19 -265.82)"/>
  </g>
  <g id="Layer_8" data-name="Layer 8">
    <path class="cls-1" d="M617.58,279.1l-3.77,14.15H606l2.38-8.6-4.52-4.13-3.59,12.73h-7.09l3.87-14.15Zm1.95-7.21L618,277.06H597.71l1.45-5.17h7l4.58,4.36,1.12-4.36Z" transform="translate(-412.19 -265.82)"/>
  </g>
  <g id="Layer_9" data-name="Layer 9">
    <path class="cls-1" d="M640.49,279.1l-3.78,14.15h-7.77l2.39-8.6-4.52-4.13-3.59,12.73h-7.09L620,279.1Zm2-7.21-1.55,5.17H620.62l1.45-5.17h7l4.58,4.36,1.11-4.36Z" transform="translate(-412.19 -265.82)"/>
  </g>
  <g id="Layer_10" data-name="Layer 10">
    <path class="cls-1" d="M661.88,279.1l-1.49,5.63H650.33l-.8,2.94h10L658,293.25H639.84l3.78-14.15Zm2-7.21-1.36,5.2H642.35l3.34-5.2Z" transform="translate(-412.19 -265.82)"/>
  </g>
  <g id="Layer_11" data-name="Layer 11">
    <path class="cls-1" d="M688.59,279.1a5.79,5.79,0,0,1-2.16,3.57,4.7,4.7,0,0,1-1.46,1,4.26,4.26,0,0,1,.71,2.36,13.63,13.63,0,0,1-.21,2c-.09.54-.62,2.29-1.61,5.25h-6.94l2.48-8.55h-7.31l-2.63,8.55h-7.21l4.15-14.15ZM689,277H665l3.28-5.14h17.61a2.57,2.57,0,0,1,1.44.49,3.42,3.42,0,0,1,1.1,1.18A7.79,7.79,0,0,1,689,277Z" transform="translate(-412.19 -265.82)"/>
  </g>
  <g id="Layer_12" data-name="Layer 12">
    <path class="cls-2" d="M718.47,299.9a1.9,1.9,0,0,1-1.21,0,2,2,0,0,1-.62-.68c-.06-.1-.27-.46-.62-1.08a3.86,3.86,0,0,0-.46-.13,3.86,3.86,0,0,1-.59-1.42c.16-.19.31-.35.43-.5a2.45,2.45,0,0,1,0-1,7.85,7.85,0,0,1,1.18-1.17.39.39,0,0,0-.05-.34.32.32,0,0,0-.29-.19,5.8,5.8,0,0,1-2.53-1c-1-.62-1.53-1.11-1.47-1.48.83-1.68,2.67-3.4,5.53-5.19s4.53-2.88,5-3.3a15.92,15.92,0,0,0,4.8-6.19,3.71,3.71,0,0,0,.37-1.17c0-.13,0-.19-.12-.19a.66.66,0,0,0-.22.06l-.19.06a11.79,11.79,0,0,0-1.42.5l-1,.19a4.74,4.74,0,0,0-2.17,1.76l-.89,1.36-.41.06-.31.19-.55.15c0,.29-.06.58-.1.87a.39.39,0,0,1-.24.34,1.42,1.42,0,0,1-.19-.65c-.25,0-.51.18-.79.54a1.44,1.44,0,0,1-1.32.48.5.5,0,0,1-.12-.37,2.35,2.35,0,0,1,.48-1.24,2.59,2.59,0,0,1,1.07-1,.23.23,0,0,0-.09-.21.17.17,0,0,1-.1-.13l-.21-.24a1.45,1.45,0,0,1,.21-.41,1.53,1.53,0,0,1,.34-.34l-.06-.24a.41.41,0,0,1,.09-.31,3.73,3.73,0,0,1,.69-.19l.55-.43,1.12-1.09c.2-.31.42-.62.65-.93a3,3,0,0,1,1-.86c.7-.31,1.23-.53,1.58-.65a19.65,19.65,0,0,0,2.78-1.64,3.83,3.83,0,0,1,1.41-.72l.67-.09c.25-1,.58-1.51,1-1.51a1.28,1.28,0,0,1,.65.26,1.35,1.35,0,0,0,.59.26c.2,0,.32-.15.34-.46a3.05,3.05,0,0,1,.63-2,2.9,2.9,0,0,1,1.94-.49c.47.16.83.28,1.08.34a1.23,1.23,0,0,1,.4.28,1.59,1.59,0,0,1,.68.77c0,.06,0,.14-.11.22a.47.47,0,0,0-.17.4,3.12,3.12,0,0,0,0,.36,2.63,2.63,0,0,1,0,.38.63.63,0,0,1,0,.22.68.68,0,0,0,0,.22c.09.39.16.68.22.86a.29.29,0,0,1-.06.25.24.24,0,0,1-.17,0c-.07,0-.11,0-.11,0-.08.23-.14.4-.17.53s0,.18-.06.18,0,0-.05,0V271a.29.29,0,0,0-.06.15,4.24,4.24,0,0,0-.17.39c0,.09-.17.12-.42.08a5.93,5.93,0,0,0-.68-.13.54.54,0,0,0-.4.16.33.33,0,0,0,0,.28q0,.18.12.21a3.25,3.25,0,0,1,1.27.59,1.44,1.44,0,0,1,.34.68,3.25,3.25,0,0,0,.43,1,12.3,12.3,0,0,0,1.12,1.33,4.48,4.48,0,0,0,1.33.59,2.27,2.27,0,0,0,.59.06,4.59,4.59,0,0,0,1.21-.09,5.78,5.78,0,0,0,1.2-.46,2.09,2.09,0,0,1,.81-.34.83.83,0,0,0,.59.4.2.2,0,0,0,.15-.06c.19-.19.37-.39.56-.59a1.46,1.46,0,0,1,.83-.16.65.65,0,0,0,0-.28.59.59,0,0,1,.31,0,3.4,3.4,0,0,0-.06-.74,3.1,3.1,0,0,1,1-.34c1.28,0,2.36,0,3.25,0l.1.34h.15l0,.47h-.16s-.09,0-.15.12L750,275c-.25,0-.71,0-1.4.07l-.4,0a1.26,1.26,0,0,0-.12.34c0,.1-.15.19-.37.28a2.71,2.71,0,0,1-.41,0c0,.05.18,0,.47-.09s.28,0,.29-.12,0-.15,0-.19c0-.23-.17-.27-.5-.12a.89.89,0,0,1-.15.52l-.25.07a2.23,2.23,0,0,0-.06.46,2.2,2.2,0,0,1-.47.25,1.08,1.08,0,0,1-.68.74l-.65.12-1.3,0c-.18.09-.32.42-.4,1l-.62.35a.7.7,0,0,0-.29.17.86.86,0,0,1-.3.17l-.77-.1a1.32,1.32,0,0,0-.74.1,5.21,5.21,0,0,1-1.8.34,4.85,4.85,0,0,1-2.94-1.06,4.51,4.51,0,0,1-.93-.55q-.09,0-.21.15a16.48,16.48,0,0,0-1.09,2.32,8.76,8.76,0,0,1-.65,1.4,5.57,5.57,0,0,0-.56,1.48c1.57,1.71,2.55,2.8,3,3.25a5.59,5.59,0,0,1,.71,1.7,2.51,2.51,0,0,1-.9,1.68q-.46.53-.93,1a22.4,22.4,0,0,0-2.13,1.82c-.07.71-.22,1.14-.47,1.3l-.84.13a3.05,3.05,0,0,0,.31,1.33s.08.05.16.15.13.16.15.16a2.28,2.28,0,0,0,.72.59s0,.09,0,.23a1.35,1.35,0,0,0,0,.26l-.31,0a9,9,0,0,1-3-1.7,1.71,1.71,0,0,0-.46,0,10,10,0,0,1-1-.43,1.72,1.72,0,0,1,.37-1.34.57.57,0,0,0,.08-.47,1.07,1.07,0,0,1,0-.52,1.39,1.39,0,0,1,.56-.61,3.44,3.44,0,0,1,.34-.19,1.65,1.65,0,0,0,.28-.5c.29-.43.65-.9,1.08-1.42a2.84,2.84,0,0,1,.85-.73c.3-.15.6-.31.88-.48a.51.51,0,0,0-.32-.43,1.09,1.09,0,0,1-.33-.22,4.29,4.29,0,0,1-.69-.52c-.2-.19-.32-.28-.36-.28s-.24.24-.52.71l-.84,1a13.72,13.72,0,0,1-1.49,1.77l-2,1.95A19.15,19.15,0,0,0,724,294c-.42.58-.7.87-.87.87a.4.4,0,0,1-.28-.19c-.27-.14-.55-.28-.85-.4a1.11,1.11,0,0,0-.67-.13,2.34,2.34,0,0,0-1,.66,12.05,12.05,0,0,0-.79.95,1.64,1.64,0,0,0-.23.44.85.85,0,0,1-.3.43.37.37,0,0,1-.21,0,2.11,2.11,0,0,0-.13.31,4.61,4.61,0,0,1-1,0,9,9,0,0,0-.12,1.92c.31.2.56.36.74.46s.28.21.28.31A.29.29,0,0,1,718.47,299.9Z" transform="translate(-412.19 -265.82)"/>
  </g>
</svg>
